{
  "accessors": [
    {
      "bufferView": 2,
      "componentType": 5126,
      "count": 2205,
      "max": [
        4.917006015777588,
        15.91413402557373,
        1.5469319820404053
      ],
      "min": [
        -4.917006015777588,
        -2.3841863594498136e-08,
        -1.575225830078125
      ],
      "type": "VEC3"
    },
    {
      "bufferView": 2,
      "byteOffset": 26460,
      "componentType": 5126,
      "count": 2205,
      "max": [
        0.9998037815093994,
        0.9997816681861877,
        0.9999631643295288
      ],
      "min": [
        -0.9999204277992249,
        -1.0,
        -0.9999224543571472
      ],
      "type": "VEC3"
    },
    {
      "bufferView": 1,
      "componentType": 5126,
      "count": 2205,
      "max": [
        0.992243766784668,
        0.9974820017814636
      ],
      "min": [
        0.006696462631225586,
        0.004485487937927246
      ],
      "type": "VEC2"
    },
    {
      "bufferView": 1,
      "byteOffset": 17640,
      "componentType": 5126,
      "count": 2205,
      "max": [
        0.992243766784668,
        0.9974820017814636
      ],
      "min": [
        0.006696462631225586,
        0.004485487937927246
      ],
      "type": "VEC2"
    },
    {
      "bufferView": 1,
      "byteOffset": 35280,
      "componentType": 5126,
      "count": 2205,
      "max": [
        0.992243766784668,
        0.9974820017814636
      ],
      "min": [
        0.006696462631225586,
        0.004485487937927246
      ],
      "type": "VEC2"
    },
    {
      "bufferView": 0,
      "componentType": 5125,
      "count": 8991,
      "type": "SCALAR"
    }
  ],
  "asset": {
    "extras": {
      "author": "Kristy Ng (https://sketchfab.com/kaine027)",
      "license": "CC-BY-4.0 (http://creativecommons.org/licenses/by/4.0/)",
      "source": "https://sketchfab.com/3d-models/girl-model-4a2328a95fc44fbab53f1c965a2f1d58",
      "title": "Girl Model"
    },
    "generator": "Sketchfab-12.7.0",
    "version": "2.0"
  },
  "bufferViews": [
    {
      "buffer": 0,
      "byteLength": 35964,
      "name": "floatBufferViews",
      "target": 34963
    },
    {
      "buffer": 0,
      "byteLength": 52920,
      "byteOffset": 35964,
      "byteStride": 8,
      "name": "floatBufferViews",
      "target": 34962
    },
    {
      "buffer": 0,
      "byteLength": 52920,
      "byteOffset": 88884,
      "byteStride": 12,
      "name": "floatBufferViews",
      "target": 34962
    }
  ],
  "buffers": [
    {
      "byteLength": 141804,
      "uri": "scene.bin"
    }
  ],
  "extensionsUsed": [
    "KHR_materials_unlit"
  ],
  "images": [
    {
      "uri": "textures/mat_katerine_baseColor.png"
    }
  ],
  "materials": [
    {
      "doubleSided": true,
      "extensions": {
        "KHR_materials_unlit": {}
      },
      "name": "mat_katerine",
      "pbrMetallicRoughness": {
        "baseColorTexture": {
          "index": 0
        },
        "metallicFactor": 0.0
      }
    }
  ],
  "meshes": [
    {
      "name": "SM_Katherine_mat_katerine_0",
      "primitives": [
        {
          "attributes": {
            "NORMAL": 1,
            "POSITION": 0,
            "TEXCOORD_0": 2,
            "TEXCOORD_1": 3,
            "TEXCOORD_2": 4
          },
          "indices": 5,
          "material": 0,
          "mode": 4
        }
      ]
    }
  ],
  "nodes": [
    {
      "children": [
        1
      ],
      "matrix": [
        1.0,
        0.0,
        0.0,
        0.0,
        0.0,
        2.220446049250313e-16,
        -1.0,
        0.0,
        0.0,
        1.0,
        2.220446049250313e-16,
        0.0,
        0.0,
        0.0,
        0.0,
        1.0
      ],
      "name": "Sketchfab_model"
    },
    {
      "children": [
        2
      ],
      "matrix": [
        0.009999999776482582,
        0.0,
        0.0,
        0.0,
        0.0,
        0.0,
        0.009999999776482582,
        0.0,
        0.0,
        -0.009999999776482582,
        0.0,
        0.0,
        0.0,
        0.0,
        0.0,
        1.0
      ],
      "name": "0f1bb3891ac046ff9b15e7ecd5ec2e66.fbx"
    },
    {
      "children": [
        3
      ],
      "name": "RootNode"
    },
    {
      "children": [
        4
      ],
      "name": "SM_Katherine"
    },
    {
      "mesh": 0,
      "name": "SM_Katherine_mat_katerine_0"
    }
  ],
  "samplers": [
    {
      "magFilter": 9729,
      "minFilter": 9987,
      "wrapS": 10497,
      "wrapT": 10497
    }
  ],
  "scene": 0,
  "scenes": [
    {
      "name": "Sketchfab_Scene",
      "nodes": [
        0
      ]
    }
  ],
  "textures": [
    {
      "sampler": 0,
      "source": 0
    }
  ]
}
